<svg version="1.1" xmlns="http://www.w3.org/2000/svg" style="display: block;" viewBox="0 0 1780 1896" width="445" height="474" preserveAspectRatio="none">
<defs>
	<linearGradient id="Gradient1" gradientUnits="userSpaceOnUse" x1="311.596" y1="1636.6" x2="1321.29" y2="61.2789">
		<stop class="stop0" offset="0" stop-opacity="1" stop-color="rgb(164,52,4)"/>
		<stop class="stop1" offset="1" stop-opacity="1" stop-color="rgb(255,145,1)"/>
	</linearGradient>
</defs>
<path transform="translate(0,0)" fill="url(#Gradient1)" d="M 459.035 1178.34 C 456.61 1115.68 459.428 1052.68 459.826 990.009 C 459.987 964.597 458.983 939.123 458.767 913.704 C 458.432 874.373 458.879 835.004 458.978 795.67 C 459.114 741.505 459.491 687.405 457.493 633.264 C 456.217 598.704 454.612 564.672 449.009 530.488 C 444.541 503.232 437.209 475.658 429.031 449.288 C 417.217 411.192 399.808 375.59 382.009 340.009 C 366.089 308.185 349.852 276.735 333.081 245.357 C 322.464 225.493 312.291 205.11 302.563 184.791 C 297.341 173.883 281.642 133.77 274.934 126.892 C 263.585 115.255 80.4491 130.964 46.4339 118.634 C 26.8998 111.554 11.1317 92.5716 9.98076 71.5504 C 8.99791 53.5988 13.4419 33.1223 25.8926 19.5357 C 36.3651 8.10762 50.1375 4.73303 65.0991 4.22054 C 101.947 2.95834 138.71 5.45502 175.561 5.08504 C 212.123 4.71796 248.536 3.86593 285.11 4.36413 C 300.064 4.56784 315.855 3.65134 330.596 6.44456 C 338.368 7.91731 345.483 12.5643 351.211 17.8898 C 364.165 29.9321 371.024 49.4395 379.121 64.9186 C 402.586 109.775 423.691 155.945 447.66 200.476 C 469.004 240.13 490.019 279.707 510.086 320.021 C 530.516 361.065 549.552 400.795 562.876 444.92 C 570.823 471.768 576.529 499.229 579.937 527.02 C 586.09 579.346 584.749 615.322 601.136 668.379 C 615.378 721.289 656.375 766.104 706.511 787.517 C 722.712 794.437 758.492 802.956 776.779 803.357 C 901.915 806.096 1027.71 804.154 1152.91 803.902 C 1207.21 803.792 1269.24 793.299 1318.65 770.649 C 1336.41 762.239 1368.17 738.381 1381.38 724.212 C 1421.46 681.594 1441.47 614.406 1439.05 556.762 C 1437 508.024 1414.47 442.393 1377.84 409.403 C 1296.31 335.961 1190.78 334.82 1088.62 333.436 C 1033.44 332.602 978.236 332.739 923.052 333.845 C 887.503 334.14 851.952 334.091 816.403 333.7 C 793.012 333.339 760.924 331.09 738.308 333.446 C 736.545 361.251 738.808 385.514 738.044 411.854 C 735.647 494.429 738.816 576.901 736.843 659.401 C 736.421 677.062 738.346 721.089 735.083 735.037 C 728.864 738.755 719.304 731.535 713.867 728.16 C 689.468 713.015 670.696 688.451 658.35 662.837 C 642.038 629.663 642.327 601.191 639.268 565.911 C 637.663 549.296 635.747 532.712 633.521 516.168 C 627.953 475.556 615.201 422.91 600.241 384.582 C 569.469 305.746 523.099 231.876 487.571 155.133 C 479.517 137.737 466.326 116.168 460.681 98.5265 C 632.273 100.227 803.876 100.71 975.475 99.9759 L 1118.25 99.7963 C 1196.91 99.6636 1257.93 99.4871 1335.14 115.309 C 1556.89 160.755 1726.64 315.802 1722.66 553.125 C 1720.22 698.254 1663.26 807.994 1539.57 888.21 C 1536.03 890.473 1533.04 894.481 1530.55 897.929 L 1531.51 898.873 C 1542.55 909.614 1560.55 915.179 1573.52 923.598 C 1588.85 933.557 1604.26 944.164 1618.95 954.86 C 1809.12 1093.33 1822.83 1423.29 1658.19 1586.34 C 1625.91 1618.31 1589.56 1645.26 1548.67 1664.92 C 1535.23 1671.38 1511.4 1687.67 1499.6 1673.17 C 1492.38 1664.28 1485.7 1655.14 1478.43 1646.3 C 1457.39 1622.79 1435.2 1611.04 1406.66 1599.72 C 1396.42 1595.66 1375.67 1592.56 1372.08 1591 C 1353.27 1590.41 1341.63 1590.06 1322.84 1592.84 L 1321.69 1593.25 C 1312.47 1596.5 1302.34 1597.78 1293.8 1600.94 C 1253.47 1615.83 1217.87 1644.67 1198.39 1683.33 C 1193.69 1692.65 1184.55 1722.22 1180.78 1733.34 C 1166.91 1736.89 1140.53 1735.27 1125.49 1735.07 C 1109.17 1734.95 1092.86 1734.95 1076.55 1735.09 L 969.187 1735.93 C 950.606 1735.98 926.678 1736.88 908.824 1734.56 C 894.437 1692 884.776 1658.14 847.419 1628.85 C 821.669 1608.67 805.757 1604.38 776.358 1594.31 C 754.656 1590.3 743.268 1590.45 721.495 1590.99 C 667.117 1597.54 631.9 1619.57 598.269 1662.15 C 581.119 1683.86 577.383 1708.32 565.671 1732.42 C 564.602 1734.62 562.825 1734.6 560.695 1734.92 C 552.688 1736.89 524.19 1736.17 514.162 1736.11 L 459.658 1736.11 C 458.538 1723.35 459.279 1697.87 459.24 1684.28 L 458.959 1580.5 L 458.659 1467.1 C 458.549 1445.86 457.661 1418.85 458.946 1398.29 C 456.941 1381.23 458.295 1334.59 458.365 1315.03 C 458.412 1291.57 458.586 1268.11 458.888 1244.66 C 458.987 1231.33 458.638 1214.84 459.676 1201.79 C 459.227 1193.61 459.001 1186.53 459.035 1178.34 z M 737.258 1427.45 C 737.578 1448.78 735.364 1487.61 738.803 1506.83 C 760.541 1507.98 790.093 1506.95 812.489 1506.98 L 951.501 1507.53 L 1099.18 1507.2 C 1209.37 1507.16 1320.27 1510.28 1412.29 1438.35 C 1501 1369.01 1506.22 1222.36 1445.77 1133.26 C 1410.88 1081.83 1339.9 1051.92 1280.89 1041.13 C 1263.87 1038.02 1247.13 1036.92 1230.25 1034.26 C 1221.02 1034.29 1193.3 1033.39 1184.93 1032.2 C 1035.71 1030.88 886.482 1030.9 737.261 1032.24 C 738.789 1047.49 737.159 1071.12 737.247 1087.36 L 737.219 1227.04 L 737.553 1355.34 C 737.685 1375.35 738.95 1408.81 737.258 1427.45 z M 734.651 1195.29 C 730.673 1200.1 732.006 1320.31 730.988 1337.52 L 730.746 1336.46 C 729.813 1348.48 728.059 1394.28 736.26 1401.38 C 732.869 1375.16 733.846 1342.62 733.893 1315.64 C 733.904 1275.52 734.156 1235.41 734.651 1195.29 z"/>
<path transform="translate(0,0)" fill="rgb(179,64,3)" d="M 459.035 1178.34 C 464.93 1195.45 463.248 1211.82 463.368 1229.72 C 463.747 1285.97 465.418 1342.1 463.645 1398.36 C 463.152 1413.98 461.761 1427.37 462.655 1443.4 C 465.187 1444.09 464.195 1443.35 465.89 1445.3 C 466.389 1451.88 465.326 1454.21 470.472 1458.74 C 474.277 1462.09 482.453 1467.18 482.579 1472.48 C 483.15 1496.45 478.045 1519.32 476.133 1543.4 L 474.423 1544.71 L 473.45 1543.21 C 472.092 1546.68 472.581 1547.02 470.108 1549.08 C 468.15 1546.95 468.108 1545.28 467.202 1542.27 C 466.611 1546 466.438 1596.92 467.224 1598.63 L 468.253 1598.24 C 469.143 1595.36 469.693 1591.45 471.734 1590.26 C 474.122 1596.19 471.31 1601.8 473.975 1605.82 C 475.583 1605.27 475.453 1605.37 476.964 1604.53 L 479.49 1611.31 C 480.416 1609.01 479.993 1606.27 479.924 1603.57 L 480.724 1603.52 C 480.772 1610.64 482.517 1620.76 481.853 1626.96 C 480.803 1636.77 475.309 1647.75 471.991 1656.92 C 471.043 1659.54 472.78 1666.31 471.509 1668.87 C 469.293 1664.92 472.326 1661.21 469.78 1657.15 C 465.224 1666.86 464.334 1701.93 463.915 1702.39 L 462.209 1694.92 L 461.348 1694.56 C 460.483 1700.5 460.453 1727.95 462.555 1733.09 C 475.107 1734.47 491.664 1734.52 504.56 1735.01 L 505.082 1732.3 L 515.955 1730.75 C 517.199 1732.03 516.685 1731.3 517.469 1732.97 C 519.604 1731.78 520.075 1730.33 521.251 1728.16 L 522.662 1727.82 C 528.171 1726.43 529.075 1724.92 529.767 1719.07 C 529.248 1717.66 528.782 1716.36 528.302 1714.93 L 529.924 1713.44 C 535.873 1716.43 539.588 1718.82 546.076 1714.91 C 548.498 1717.78 547.85 1717.19 546.419 1720.97 C 547.23 1723.84 547.549 1724.67 548.757 1727.41 C 548.25 1730.45 548.081 1730.46 546.608 1733.03 C 550.493 1735 553.34 1732.21 560.695 1734.92 C 552.688 1736.89 524.19 1736.17 514.162 1736.11 L 459.658 1736.11 C 458.538 1723.35 459.279 1697.87 459.24 1684.28 L 458.959 1580.5 L 458.659 1467.1 C 458.549 1445.86 457.661 1418.85 458.946 1398.29 C 456.941 1381.23 458.295 1334.59 458.365 1315.03 C 458.412 1291.57 458.586 1268.11 458.888 1244.66 C 458.987 1231.33 458.638 1214.84 459.676 1201.79 C 459.227 1193.61 459.001 1186.53 459.035 1178.34 z"/>
<path transform="translate(0,0)" fill="rgb(81,6,0)" d="M 459.676 1201.79 C 463.015 1217.93 461.127 1237.24 461.421 1254.34 C 461.932 1282.56 462.117 1310.78 461.976 1339 C 461.935 1350.72 462.745 1389.21 458.946 1398.29 C 456.941 1381.23 458.295 1334.59 458.365 1315.03 C 458.412 1291.57 458.586 1268.11 458.888 1244.66 C 458.987 1231.33 458.638 1214.84 459.676 1201.79 z"/>
<path transform="translate(0,0)" fill="rgb(144,34,2)" d="M 721.495 1590.99 L 716.879 1589.76 L 717.013 1588.94 C 728.97 1585.09 766.699 1585.38 776.358 1594.31 C 754.656 1590.3 743.268 1590.45 721.495 1590.99 z"/>
<path transform="translate(0,0)" fill="rgb(179,64,3)" d="M 1322.84 1592.84 C 1328.49 1585.14 1364.99 1586.66 1372.08 1591 C 1353.27 1590.41 1341.63 1590.06 1322.84 1592.84 z"/>
<path transform="translate(0,0)" fill="rgb(81,6,0)" d="M 734.651 1195.29 C 735.85 1154.84 734.946 1113.99 735.194 1073.5 C 735.283 1058.99 734.631 1046.68 737.261 1032.24 C 738.789 1047.49 737.159 1071.12 737.247 1087.36 L 737.219 1227.04 L 737.553 1355.34 C 737.685 1375.35 738.95 1408.81 737.258 1427.45 C 736.698 1420.24 738.5 1407.44 736.26 1401.38 C 732.869 1375.16 733.846 1342.62 733.893 1315.64 C 733.904 1275.52 734.156 1235.41 734.651 1195.29 z"/>
<path transform="translate(0,0)" fill="rgb(179,64,3)" fill-opacity="0.984314" d="M 736.26 1401.38 C 728.059 1394.28 729.813 1348.48 730.746 1336.46 L 730.988 1337.52 C 732.006 1320.31 730.673 1200.1 734.651 1195.29 C 734.156 1235.41 733.904 1275.52 733.893 1315.64 C 733.846 1342.62 732.869 1375.16 736.26 1401.38 z"/>
<path transform="translate(0,0)" fill="rgb(179,64,3)" d="M 1184.93 1032.2 C 1195.4 1030.81 1222.18 1027.81 1230.25 1034.26 C 1221.02 1034.29 1193.3 1033.39 1184.93 1032.2 z"/>
<path transform="translate(0,0)" fill="rgb(179,64,3)" d="M 1338.56 1650.25 C 1401.09 1642.77 1457.85 1687.39 1465.34 1749.91 C 1472.84 1812.44 1428.25 1869.21 1365.72 1876.73 C 1303.17 1884.25 1246.37 1839.63 1238.87 1777.07 C 1231.37 1714.52 1276.01 1657.73 1338.56 1650.25 z"/>
<path transform="translate(0,0)" fill="rgb(179,64,3)" d="M 725.723 1650.43 C 788.178 1644.46 843.664 1690.21 849.713 1752.66 C 855.762 1815.1 810.09 1870.65 747.651 1876.78 C 685.092 1882.93 629.416 1837.15 623.355 1774.58 C 617.294 1712.02 663.148 1656.4 725.723 1650.43 z"/>
</svg>